<svg width="50" height="50" viewBox="0 0 50 50" fill="none" xmlns="http://www.w3.org/2000/svg">
<path fill-rule="evenodd" clip-rule="evenodd" d="M0 24.7299C-5.96046e-07 38.3878 11.0719 49.4597 24.7299 49.4597C38.3878 49.4597 49.4597 38.3878 49.4597 24.7299C49.4597 11.0719 38.3878 5.96046e-07 24.7299 0C11.0719 -5.96046e-07 5.96046e-07 11.0719 0 24.7299ZM40.3264 27.1439C40.3264 30.0949 39.889 33.0088 39.0141 35.8857L38.7471 36.7977L33.5866 34.9737L33.8313 34.1284C34.5727 31.4444 34.9435 28.9976 34.9435 26.788C34.9435 24.6082 34.5876 22.7397 33.8758 21.1826C33.164 19.6404 32.252 18.8693 31.1398 18.8693C30.4132 18.8693 29.7755 19.2104 29.2268 19.8925C28.6782 20.5895 28.2111 21.4866 27.8255 22.584C27.4548 23.6813 27.084 24.8899 26.7133 26.2097C26.3426 27.5443 25.9125 28.8789 25.4232 30.2136C24.9338 31.5482 24.3703 32.7642 23.7327 33.8615C23.095 34.9589 22.2423 35.8486 21.1746 36.5308C20.1218 37.2277 18.9058 37.5762 17.5267 37.5762C16.6369 37.5762 15.7546 37.4205 14.8797 37.1091C14.0196 36.8125 13.1669 36.3009 12.3217 35.5743C11.4764 34.8625 10.735 33.9727 10.0973 32.905C9.47448 31.8522 8.96288 30.5027 8.56249 28.8567C8.17693 27.2255 7.98416 25.3941 7.98416 23.3625C7.98416 21.3309 8.16952 19.4995 8.54025 17.8683C8.92581 16.2371 9.47448 14.5095 10.1863 12.6856L10.4977 11.8625L15.8807 13.7533L15.547 14.6208C14.2124 18.3725 13.5451 21.4644 13.5451 23.8964C13.5451 26.18 13.8936 28.0263 14.5905 29.435C15.2875 30.8586 16.2069 31.5704 17.3487 31.5704C17.9864 31.5704 18.5573 31.3554 19.0615 30.9254C19.5657 30.4953 19.9883 29.917 20.3294 29.1903C20.6853 28.4637 21.0115 27.6259 21.3081 26.6768C21.6047 25.7426 21.8939 24.7564 22.1756 23.7184C22.4574 22.6804 22.7614 21.6423 23.0876 20.6043C23.4138 19.5663 23.8068 18.5727 24.2665 17.6236C24.7262 16.6894 25.2452 15.859 25.8236 15.1324C26.4019 14.4057 27.1211 13.8274 27.9812 13.3974C28.8561 12.9673 29.8274 12.7523 30.8951 12.7523C33.5644 12.7523 35.8036 14.0572 37.6127 16.6672C38.4885 17.9379 39.1524 19.4119 39.6042 21.0892C40.0857 22.8766 40.3264 24.8948 40.3264 27.1439Z" fill="white"/>
</svg>
